<svg xmlns="http://www.w3.org/2000/svg" width="17.12" height="15.12" viewBox="0 0 17.12 15.12"><defs><style>.a{fill:none;opacity:0.11;}.b{fill:#2e93ee;stroke:#2e93ee;}</style></defs><rect class="a" width="17.12" height="15.12"/><path class="b" d="M489.314,388.722a.771.771,0,0,0-1.04-.011l-3.617,3.314v-9.181a.738.738,0,0,0-1.472,0v9.227l-3.617-3.313a.771.771,0,0,0-1.04.01.657.657,0,0,0,.011.973l4.843,4.436a.762.762,0,0,0,.515.2l.012,0,.013,0a.74.74,0,0,0,.568-.268l4.814-4.41A.657.657,0,0,0,489.314,388.722Z" transform="translate(-475.36 -380.705)"/></svg>